<?xml version="1.0" encoding="iso-8859-1"?>
<!-- Generator: Adobe Illustrator 19.0.0, SVG Export Plug-In . SVG Version: 6.00 Build 0)  -->
<svg xmlns="http://www.w3.org/2000/svg" xmlns:xlink="http://www.w3.org/1999/xlink" version="1.1" id="Layer_1" x="0px" y="0px" viewBox="0 0 512 512" style="enable-background:new 0 0 512 512;" xml:space="preserve" width="512" height="512">
<g>
	<g>
		<path d="M512,88.426C512,56.761,486.238,31,454.573,31h-10.491c-26.474,0-52.117,8.485-73.279,24.077    C340.492,39.699,299.368,31,256,31c-42.804,0-83.585,8.703-113.837,24.089C121.029,39.683,94.529,31,67.918,31H57.426    C25.761,31,0,56.761,0,88.426c0,15.339,5.973,29.76,16.82,40.606l45.814,44.975L31,221.458v90.848    c0,62.061,42.05,115.917,102.257,130.97l25.074,6.268L189.787,481h133.426l31.456-31.456l25.073-6.268    C439.95,428.224,482,374.368,482,312.307v-90.848l-31.698-47.548l44.878-44.878C506.026,118.187,512,103.766,512,88.426z     M473.967,107.82l-37.026,37.026c-0.613-10.237,3.033-20.606,10.665-28.239l-21.213-21.213    c-22.422,22.422-25.93,57.845-8.34,84.228l23.02,34.531C418.464,231.543,390.826,241,362,241v30c32.423,0,63.624-9.727,90-27.735    v35.145c-15.176,8.196-31.373,14.25-48.266,18.019l6.531,29.28c14.396-3.211,28.357-7.855,41.734-13.862v0.459    c0,48.27-32.705,90.158-79.533,101.865l-33.136,8.284L310.787,451H202.213l-28.544-28.544l-33.135-8.284    C93.706,402.465,61,360.576,61,312.307v-0.459c13.377,6.007,27.338,10.65,41.734,13.862l6.532-29.28    C92.374,292.661,76.177,286.606,61,278.41v-35.145C87.377,261.273,118.577,271,151,271v-30c-28.825,0-56.464-9.457-79.074-26.848    l23.021-34.531c17.588-26.383,14.081-61.806-8.341-84.228l-21.213,21.213c7.704,7.705,11.352,18.197,10.652,28.528L37.994,107.78    C32.838,102.604,30,95.734,30,88.426C30,73.303,42.303,61,57.426,61h10.492c23.067,0,45.959,8.501,62.806,23.325l8.234,7.246    l9.401-5.65c23.19-13.937,56.356-22.64,92.641-24.529v30.004c-46.39,2.461-89,16.528-89,44.604h31.219    c5.828-4.783,25.439-12.629,57.781-14.557V151h30v-29.568c32.756,1.893,53.016,9.677,59.478,14.568H362    c0-28.133-43.606-42.201-91-44.62V61.398c36.563,1.923,70.781,10.783,93.641,24.522l9.4,5.65l8.234-7.246    C399.371,69.284,421.32,61,444.082,61h10.491C469.696,61,482,73.303,482,88.426C482,95.752,479.147,102.64,473.967,107.82z"/>
	</g>
	<path d="M302,186.729V271h-91v-84.271l-68.292-34.146l-13.416,26.833L181,205.271v56.145c-36.282,17.207-60,54.063-60,94.855V376   h30v-19.73c0-24.273,11.759-46.593,30.66-60.476c4.166,31.78,28.283,57.367,59.34,63.696v7.239l-51.708,25.854l13.416,26.833   l53.347-26.673l54.325,26.717l13.24-26.921L271,366.661v-7.145c14.372-2.872,27.66-9.854,38.411-20.363   c12.167-11.893,19.747-27.026,21.921-43.364C350.238,309.671,362,331.993,362,356.27V376h30v-19.73   c0-40.792-23.718-77.648-60-94.855v-56.145l51.708-25.854l-13.416-26.833L302,186.729z M256,331   c-19.556,0-36.239-12.549-42.43-30.01h85.694C292.791,318.272,275.59,331,256,331z"/>
</g>















</svg>
